<?xml version="1.0" encoding="utf-8"?>
<svg xmlns="http://www.w3.org/2000/svg" viewBox="17.308 17.308 365.384 365.384" width="365.384px" height="365.384px" xmlns:bx="https://boxy-svg.com">
  <defs>
    <linearGradient id="gradient-1-0" href="#gradient-1" gradientUnits="userSpaceOnUse" x1="200" y1="100" x2="200" y2="300" gradientTransform="matrix(0.51446, -0.513349, 0.726771, 0.726771, -48.246233, 157.315592)"/>
    <linearGradient id="gradient-1" bx:pinned="true">
      <stop offset="0" style="stop-color: rgb(184, 118, 118);"/>
      <stop offset="1" style="stop-color: rgb(118, 184, 127);"/>
    </linearGradient>
    <linearGradient id="gradient-1-2" href="#gradient-1" gradientUnits="userSpaceOnUse" x1="245.573" y1="298.669" x2="245.573" y2="338.669" gradientTransform="matrix(-0.016735, -0.99986, 3.535531, 0, -876.981442, 598.245849)"/>
    <linearGradient id="gradient-1-3" href="#gradient-1" gradientUnits="userSpaceOnUse" x1="245.573" y1="298.669" x2="245.573" y2="338.669" gradientTransform="matrix(0.014762, 0.999888, -3.535539, 0, 1368.614382, 107.160741)" spreadMethod="pad"/>
  </defs>
  <rect x="127.323" y="127.323" width="145.354" height="145.354" style="stroke: rgb(0, 0, 0); fill-rule: nonzero; paint-order: fill; fill: url(&quot;#gradient-1-0&quot;); fill-opacity: 0.5; stroke-width: 0px;" rx="24.417" ry="24.417"/>
  <ellipse style="stroke: rgb(0, 0, 0); fill: rgb(118, 184, 127); stroke-width: 2px;" cx="108.654" cy="108.654" rx="91.346" ry="91.346"/>
  <ellipse style="stroke: rgb(0, 0, 0); fill: rgb(184, 118, 118); stroke-width: 2px;" cx="291.346" cy="291.346" rx="91.346" ry="91.346"/>
  <path d="M 160.824 313.669 H 290.322 L 290.322 298.669 L 330.322 318.669 L 290.322 338.669 L 290.322 323.669 H 160.824 V 313.669 Z" bx:shape="arrow 160.824 298.669 169.498 40 10 40 0 1@2ad8bcf4" style="stroke: rgb(0, 0, 0); fill: url(&quot;#gradient-1-2&quot;); fill-opacity: 0.75; stroke-width: 2px;" transform="matrix(-0.7071070075035095, -0.7071070075035095, 0.7071070075035095, -0.7071070075035095, 74.24455261230469, 673.0482177734375)"/>
  <path d="M 160.824 313.668 H 290.322 L 290.322 298.668 L 330.322 318.668 L 290.322 338.668 L 290.322 323.668 H 160.824 V 313.668 Z" bx:shape="arrow 160.824 298.668 169.498 40 10 40 0 1@7fcdeca9" style="stroke: rgb(0, 0, 0); fill-opacity: 0.75; stroke-width: 2; fill: url(&quot;#gradient-1-3&quot;);" transform="matrix(0.707107, 0.707107, -0.707107, 0.707107, 325.75473, -273.047516)"/>
</svg>